<?xml version="1.0" encoding="UTF-8" standalone="no"?>
<svg
   width="10.078125"
   height="38.128906"
   version="1.1"
   id="svg8"
   sodipodi:docname="build2me.svg"
   inkscape:version="1.1.1 (3bf5ae0d25, 2021-09-20)"
   xmlns:inkscape="http://www.inkscape.org/namespaces/inkscape"
   xmlns:sodipodi="http://sodipodi.sourceforge.net/DTD/sodipodi-0.dtd"
   xmlns="http://www.w3.org/2000/svg"
   xmlns:svg="http://www.w3.org/2000/svg">
  <defs
     id="defs12" />
  <sodipodi:namedview
     id="namedview10"
     pagecolor="#ffffff"
     bordercolor="#666666"
     borderopacity="1.0"
     inkscape:pageshadow="2"
     inkscape:pageopacity="0.0"
     inkscape:pagecheckerboard="0"
     showgrid="false"
     inkscape:zoom="18.384776"
     inkscape:cx="2.1485168"
     inkscape:cy="12.673529"
     inkscape:window-width="1920"
     inkscape:window-height="1018"
     inkscape:window-x="2552"
     inkscape:window-y="-8"
     inkscape:window-maximized="1"
     inkscape:current-layer="svg8"
     fit-margin-top="0"
     fit-margin-left="0"
     fit-margin-right="0"
     fit-margin-bottom="0" />
  <path
     id="path4"
     style="fill:#000000;stroke:none;stroke-width:0.167969"
     d="M 3.6953125 0 L 0.017578125 27.882812 L 0 38.128906 L 10.078125 38.128906 L 10.060547 27.882812 L 6.3828125 0 L 3.6953125 0 z M 3.9042969 0.16796875 L 6.1464844 0.16796875 L 6.2109375 0.671875 L 3.8398438 0.671875 L 3.9042969 0.16796875 z M 3.8632812 0.83984375 L 6.2148438 0.83984375 L 6.2871094 1.5019531 L 3.7636719 1.5117188 L 3.8632812 0.83984375 z M 3.7695312 1.7109375 L 6.3300781 1.7207031 L 6.4375 2.6699219 L 3.6503906 2.6972656 L 3.7695312 1.7109375 z M 6.4648438 2.8378906 L 6.6328125 4.3671875 L 3.4550781 4.3671875 L 3.640625 2.8554688 L 6.4648438 2.8378906 z M 6.6660156 4.5761719 C 6.6660156 4.5761719 6.8099577 5.8027492 6.8867188 6.2148438 L 3.1914062 6.2148438 C 3.2681672 5.8027492 3.421875 4.5859375 3.421875 4.5859375 L 6.6660156 4.5761719 z M 3.1914062 6.5507812 L 6.8867188 6.5507812 L 7.2226562 8.9023438 L 2.8554688 8.9023438 L 3.1914062 6.5507812 z M 2.8554688 9.2382812 L 7.2226562 9.2382812 L 7.6679688 12.591797 L 2.5195312 12.597656 L 2.8554688 9.2382812 z M 2.3515625 12.933594 L 7.7265625 12.933594 L 8.2304688 16.628906 L 1.8476562 16.628906 L 2.3515625 12.933594 z M 1.8476562 16.964844 L 8.2304688 16.964844 L 8.734375 21.667969 L 1.34375 21.667969 L 1.8476562 16.964844 z M 1.1757812 22.003906 L 8.9023438 22.003906 L 9.5742188 27.378906 L 0.50390625 27.378906 L 1.1757812 22.003906 z M 0.50390625 27.882812 L 9.5742188 27.882812 L 9.5742188 37.625 L 0.50390625 37.625 L 0.50390625 27.882812 z " />
</svg>
