<?xml version="1.0" encoding="UTF-8" standalone="no"?>
<svg
   width="45"
   height="44.958557"
   version="1.1"
   id="svg8"
   sodipodi:docname="buildvolume.svg"
   inkscape:version="1.1.1 (3bf5ae0d25, 2021-09-20)"
   xmlns:inkscape="http://www.inkscape.org/namespaces/inkscape"
   xmlns:sodipodi="http://sodipodi.sourceforge.net/DTD/sodipodi-0.dtd"
   xmlns="http://www.w3.org/2000/svg"
   xmlns:svg="http://www.w3.org/2000/svg">
  <defs
     id="defs12" />
  <sodipodi:namedview
     id="namedview10"
     pagecolor="#ffffff"
     bordercolor="#666666"
     borderopacity="1.0"
     inkscape:pageshadow="2"
     inkscape:pageopacity="0.0"
     inkscape:pagecheckerboard="0"
     showgrid="false"
     inkscape:zoom="4.5961941"
     inkscape:cx="9.8994949"
     inkscape:cy="35.899267"
     inkscape:window-width="1920"
     inkscape:window-height="1018"
     inkscape:window-x="2552"
     inkscape:window-y="-8"
     inkscape:window-maximized="1"
     inkscape:current-layer="svg8"
     fit-margin-top="0"
     fit-margin-left="0"
     fit-margin-right="0"
     fit-margin-bottom="0" />
  <path
     id="path4"
     style="fill:#000000;stroke:none;stroke-width:0.461298"
     d="M 24.448805,0 15.222841,0.0297321 8.587174,6.3869985 0.0126136,15.400333 0,24.200136 v 20.75842 h 20.758419 l 9.17551,-0.02703 6.437452,-6.750092 L 45,29.523085 44.994594,20.52777 44.976575,0 Z m -8.752052,0.6712249 12.938874,0.0027 -6.919473,6.6356666 -12.596505,-0.248669 z m 27.665279,0.0027 -6.600529,6.6005286 H 23.029772 l 6.482501,-6.5843112 z m 0.887459,0.071177 -0.107215,13.6614551 -6.315823,6.564489 -0.05856,-13.2713335 z M 8.122272,7.9384705 21.219718,8.0546965 14.939035,14.477734 1.8451928,14.512874 Z M 35.98126,8.0546965 29.594262,14.690363 15.861631,14.512872 22.099067,8.1402885 Z m 0.816282,0.42616 0.248668,13.3776485 -6.600528,7.025787 0.04865,-13.520001 z M 0.9225964,15.435471 H 14.761543 V 29.274416 H 0.9225964 Z m 14.7615426,0 H 29.523085 V 29.274416 H 15.684139 Z M 44.21345,15.577825 V 29.20324 l -6.458174,6.529352 0.226145,-13.448825 z m -7.060925,7.380771 -0.177491,13.554239 -6.56449,6.600527 0.154066,-12.987526 z M 0.9225964,30.197013 H 14.761543 V 44.035959 H 0.9225964 Z m 14.7615426,0 H 29.523085 V 44.035959 H 15.684139 Z" />
</svg>
