<?xml version="1.0" encoding="UTF-8" standalone="no"?>
<svg
   width="42.394367"
   height="43"
   version="1.1"
   id="svg10"
   sodipodi:docname="buildinside.svg"
   inkscape:version="1.1.1 (3bf5ae0d25, 2021-09-20)"
   xmlns:inkscape="http://www.inkscape.org/namespaces/inkscape"
   xmlns:sodipodi="http://sodipodi.sourceforge.net/DTD/sodipodi-0.dtd"
   xmlns="http://www.w3.org/2000/svg"
   xmlns:svg="http://www.w3.org/2000/svg">
  <defs
     id="defs14" />
  <sodipodi:namedview
     id="namedview12"
     pagecolor="#ffffff"
     bordercolor="#666666"
     borderopacity="1.0"
     inkscape:pageshadow="2"
     inkscape:pageopacity="0.0"
     inkscape:pagecheckerboard="0"
     showgrid="false"
     inkscape:lockguides="false"
     inkscape:zoom="14.707821"
     inkscape:cx="20.975235"
     inkscape:cy="19.921374"
     inkscape:window-width="1920"
     inkscape:window-height="1018"
     inkscape:window-x="2552"
     inkscape:window-y="-8"
     inkscape:window-maximized="1"
     inkscape:current-layer="svg10"
     fit-margin-top="0"
     fit-margin-left="0"
     fit-margin-right="0"
     fit-margin-bottom="0" />
  <path
     id="path4"
     style="fill:#010101;stroke:none;stroke-width:0.605634"
     d="M 20.591797 0 L 20.591797 9.0839844 L 17.5625 6.6621094 L 16.957031 7.2675781 L 20.591797 11.507812 L 10.902344 11.507812 L 10.902344 21.197266 L 6.6621094 17.5625 L 6.0566406 18.169922 L 8.4785156 21.197266 L 0 21.197266 L 0 22.408203 L 8.4785156 22.408203 L 6.0566406 25.4375 L 6.6621094 26.042969 L 10.902344 22.408203 L 10.902344 32.097656 L 20.591797 32.097656 L 16.957031 36.337891 L 17.5625 36.943359 L 20.591797 34.521484 L 20.591797 43 L 21.802734 43 L 21.802734 34.521484 L 24.830078 36.943359 L 25.4375 36.337891 L 21.802734 32.097656 L 31.492188 32.097656 L 31.492188 22.408203 L 35.732422 26.042969 L 36.337891 25.4375 L 33.916016 22.408203 L 42.394531 22.408203 L 42.394531 21.197266 L 33.916016 21.197266 L 36.337891 18.169922 L 35.732422 17.5625 L 31.492188 21.197266 L 31.492188 11.507812 L 21.802734 11.507812 L 25.4375 7.2675781 L 24.830078 6.6621094 L 21.802734 9.0839844 L 21.802734 0 L 20.591797 0 z M 13.324219 13.929688 L 16.351562 13.929688 L 16.310547 15.082031 L 14.462891 15.046875 L 14.458984 16.361328 L 13.324219 16.351562 L 13.324219 13.929688 z M 17.5625 13.929688 L 20.591797 13.929688 L 20.591797 15.140625 L 17.5625 15.140625 L 17.5625 13.929688 z M 21.802734 13.929688 L 24.830078 13.929688 L 24.830078 15.140625 L 21.802734 15.140625 L 21.802734 13.929688 z M 26.042969 13.929688 L 29.070312 13.929688 L 29.070312 16.351562 L 27.875 16.328125 L 27.880859 15.082031 L 26.050781 15.070312 L 26.042969 13.929688 z M 13.324219 17.5625 L 14.535156 17.5625 L 14.535156 21.197266 L 13.324219 21.197266 L 13.324219 17.5625 z M 27.859375 17.5625 L 29.070312 17.5625 L 29.070312 21.197266 L 27.859375 21.197266 L 27.859375 17.5625 z M 13.324219 22.408203 L 14.535156 22.408203 L 14.535156 25.4375 L 13.324219 25.4375 L 13.324219 22.408203 z M 27.859375 22.408203 L 29.070312 22.408203 L 29.070312 25.4375 L 27.859375 25.4375 L 27.859375 22.408203 z M 14.464844 26.625 L 14.480469 28.414062 L 16.353516 28.451172 L 16.351562 29.675781 L 13.324219 29.675781 L 13.324219 26.648438 L 14.464844 26.625 z M 27.859375 26.648438 L 29.070312 26.648438 L 29.070312 29.675781 L 26.648438 29.675781 L 26.673828 28.433594 L 27.84375 28.410156 L 27.859375 26.648438 z M 17.5625 28.464844 L 20.591797 28.464844 L 20.591797 29.675781 L 17.5625 29.675781 L 17.5625 28.464844 z M 21.802734 28.464844 L 25.4375 28.464844 L 25.4375 29.675781 L 21.802734 29.675781 L 21.802734 28.464844 z " />
</svg>
