<?xml version="1.0" encoding="UTF-8" standalone="no"?>
<svg
   width="7.8979592"
   height="43"
   version="1.1"
   id="svg8"
   sodipodi:docname="buildvline.svg"
   inkscape:version="1.1.1 (3bf5ae0d25, 2021-09-20)"
   xmlns:inkscape="http://www.inkscape.org/namespaces/inkscape"
   xmlns:sodipodi="http://sodipodi.sourceforge.net/DTD/sodipodi-0.dtd"
   xmlns="http://www.w3.org/2000/svg"
   xmlns:svg="http://www.w3.org/2000/svg">
  <defs
     id="defs12" />
  <sodipodi:namedview
     id="namedview10"
     pagecolor="#ffffff"
     bordercolor="#666666"
     borderopacity="1.0"
     inkscape:pageshadow="2"
     inkscape:pageopacity="0.0"
     inkscape:pagecheckerboard="0"
     showgrid="false"
     fit-margin-top="0"
     fit-margin-left="0"
     fit-margin-right="0"
     fit-margin-bottom="0"
     inkscape:zoom="13"
     inkscape:cx="-4.5769231"
     inkscape:cy="20.538462"
     inkscape:window-width="1920"
     inkscape:window-height="1018"
     inkscape:window-x="2552"
     inkscape:window-y="-8"
     inkscape:window-maximized="1"
     inkscape:current-layer="svg8" />
  <path
     id="path4"
     style="fill:#000000;stroke:none;stroke-width:0.438776"
     d="M 0 0 L 0 43 L 7.8984375 43 L 7.8984375 0 L 0 0 z M 0.87695312 0.87695312 L 7.0195312 0.87695312 L 7.0195312 7.0195312 L 0.87695312 7.0195312 L 0.87695312 0.87695312 z M 0.87695312 7.8984375 L 7.0195312 7.8984375 L 7.0195312 14.041016 L 0.87695312 14.041016 L 0.87695312 7.8984375 z M 0.87695312 14.917969 L 7.0195312 14.917969 L 7.0195312 21.060547 L 0.87695312 21.060547 L 0.87695312 14.917969 z M 0.87695312 21.939453 L 7.0195312 21.939453 L 7.0195312 28.082031 L 0.87695312 28.082031 L 0.87695312 21.939453 z M 0.87695312 28.958984 L 7.0195312 28.958984 L 7.0195312 35.101562 L 0.87695312 35.101562 L 0.87695312 28.958984 z M 0.87695312 35.980469 L 7.0195312 35.980469 L 7.0195312 42.123047 L 0.87695312 42.123047 L 0.87695312 35.980469 z " />
</svg>
