<?xml version="1.0" encoding="UTF-8" standalone="no"?>
<svg
   width="43"
   height="43"
   version="1.1"
   id="svg260"
   sodipodi:docname="buildarea.svg"
   inkscape:version="1.1.1 (3bf5ae0d25, 2021-09-20)"
   xmlns:inkscape="http://www.inkscape.org/namespaces/inkscape"
   xmlns:sodipodi="http://sodipodi.sourceforge.net/DTD/sodipodi-0.dtd"
   xmlns="http://www.w3.org/2000/svg"
   xmlns:svg="http://www.w3.org/2000/svg">
  <defs
     id="defs264" />
  <sodipodi:namedview
     id="namedview262"
     pagecolor="#ffffff"
     bordercolor="#666666"
     borderopacity="1.0"
     inkscape:pageshadow="2"
     inkscape:pageopacity="0.0"
     inkscape:pagecheckerboard="0"
     showgrid="false"
     fit-margin-top="0"
     fit-margin-left="0"
     fit-margin-right="0"
     fit-margin-bottom="0"
     inkscape:zoom="13"
     inkscape:cx="16.576923"
     inkscape:cy="25.153846"
     inkscape:window-width="1920"
     inkscape:window-height="1018"
     inkscape:window-x="2552"
     inkscape:window-y="-8"
     inkscape:window-maximized="1"
     inkscape:current-layer="svg260" />
  <path
     id="path256"
     style="fill:#000000;stroke:none;stroke-width:0.438776"
     d="M 0 0 L 0 43 L 43 43 L 43 0 L 0 0 z M 0.87695312 0.87695312 L 7.0195312 0.87695312 L 7.0195312 7.0195312 L 0.87695312 7.0195312 L 0.87695312 0.87695312 z M 7.8984375 0.87695312 L 14.041016 0.87695312 L 14.041016 7.0195312 L 7.8984375 7.0195312 L 7.8984375 0.87695312 z M 14.917969 0.87695312 L 21.060547 0.87695312 L 21.060547 7.0195312 L 14.917969 7.0195312 L 14.917969 0.87695312 z M 21.939453 0.87695312 L 28.082031 0.87695312 L 28.082031 7.0195312 L 21.939453 7.0195312 L 21.939453 0.87695312 z M 28.958984 0.87695312 L 35.101562 0.87695312 L 35.101562 7.0195312 L 28.958984 7.0195312 L 28.958984 0.87695312 z M 35.980469 0.87695312 L 42.123047 0.87695312 L 42.123047 7.0195312 L 35.980469 7.0195312 L 35.980469 0.87695312 z M 0.87695312 7.8984375 L 7.0195312 7.8984375 L 7.0195312 14.041016 L 0.87695312 14.041016 L 0.87695312 7.8984375 z M 7.8984375 7.8984375 L 14.041016 7.8984375 L 14.041016 14.041016 L 7.8984375 14.041016 L 7.8984375 7.8984375 z M 14.917969 7.8984375 L 21.060547 7.8984375 L 21.060547 14.041016 L 14.917969 14.041016 L 14.917969 7.8984375 z M 21.939453 7.8984375 L 28.082031 7.8984375 L 28.082031 14.041016 L 21.939453 14.041016 L 21.939453 7.8984375 z M 28.958984 7.8984375 L 35.101562 7.8984375 L 35.101562 14.041016 L 28.958984 14.041016 L 28.958984 7.8984375 z M 35.980469 7.8984375 L 42.123047 7.8984375 L 42.123047 14.041016 L 35.980469 14.041016 L 35.980469 7.8984375 z M 0.87695312 14.917969 L 7.0195312 14.917969 L 7.0195312 21.060547 L 0.87695312 21.060547 L 0.87695312 14.917969 z M 7.8984375 14.917969 L 14.041016 14.917969 L 14.041016 21.060547 L 7.8984375 21.060547 L 7.8984375 14.917969 z M 14.917969 14.917969 L 21.060547 14.917969 L 21.060547 21.060547 L 14.917969 21.060547 L 14.917969 14.917969 z M 21.939453 14.917969 L 28.082031 14.917969 L 28.082031 21.060547 L 21.939453 21.060547 L 21.939453 14.917969 z M 28.958984 14.917969 L 35.101562 14.917969 L 35.101562 21.060547 L 28.958984 21.060547 L 28.958984 14.917969 z M 35.980469 14.917969 L 42.123047 14.917969 L 42.123047 21.060547 L 35.980469 21.060547 L 35.980469 14.917969 z M 0.87695312 21.939453 L 7.0195312 21.939453 L 7.0195312 28.082031 L 0.87695312 28.082031 L 0.87695312 21.939453 z M 7.8984375 21.939453 L 14.041016 21.939453 L 14.041016 28.082031 L 7.8984375 28.082031 L 7.8984375 21.939453 z M 14.917969 21.939453 L 21.060547 21.939453 L 21.060547 28.082031 L 14.917969 28.082031 L 14.917969 21.939453 z M 21.939453 21.939453 L 28.082031 21.939453 L 28.082031 28.082031 L 21.939453 28.082031 L 21.939453 21.939453 z M 28.958984 21.939453 L 35.101562 21.939453 L 35.101562 28.082031 L 28.958984 28.082031 L 28.958984 21.939453 z M 35.980469 21.939453 L 42.123047 21.939453 L 42.123047 28.082031 L 35.980469 28.082031 L 35.980469 21.939453 z M 0.87695312 28.958984 L 7.0195312 28.958984 L 7.0195312 35.101562 L 0.87695312 35.101562 L 0.87695312 28.958984 z M 7.8984375 28.958984 L 14.041016 28.958984 L 14.041016 35.101562 L 7.8984375 35.101562 L 7.8984375 28.958984 z M 14.917969 28.958984 L 21.060547 28.958984 L 21.060547 35.101562 L 14.917969 35.101562 L 14.917969 28.958984 z M 21.939453 28.958984 L 28.082031 28.958984 L 28.082031 35.101562 L 21.939453 35.101562 L 21.939453 28.958984 z M 28.958984 28.958984 L 35.101562 28.958984 L 35.101562 35.101562 L 28.958984 35.101562 L 28.958984 28.958984 z M 35.980469 28.958984 L 42.123047 28.958984 L 42.123047 35.101562 L 35.980469 35.101562 L 35.980469 28.958984 z M 0.87695312 35.980469 L 7.0195312 35.980469 L 7.0195312 42.123047 L 0.87695312 42.123047 L 0.87695312 35.980469 z M 7.8984375 35.980469 L 14.041016 35.980469 L 14.041016 42.123047 L 7.8984375 42.123047 L 7.8984375 35.980469 z M 14.917969 35.980469 L 21.060547 35.980469 L 21.060547 42.123047 L 14.917969 42.123047 L 14.917969 35.980469 z M 21.939453 35.980469 L 28.082031 35.980469 L 28.082031 42.123047 L 21.939453 42.123047 L 21.939453 35.980469 z M 28.958984 35.980469 L 35.101562 35.980469 L 35.101562 42.123047 L 28.958984 42.123047 L 28.958984 35.980469 z M 35.980469 35.980469 L 42.123047 35.980469 L 42.123047 42.123047 L 35.980469 42.123047 L 35.980469 35.980469 z " />
</svg>
