<?xml version="1.0" encoding="UTF-8" standalone="no"?>
<svg
   width="43"
   height="14.918367"
   version="1.1"
   id="svg12"
   sodipodi:docname="exchange.svg"
   inkscape:version="1.1.1 (3bf5ae0d25, 2021-09-20)"
   xmlns:inkscape="http://www.inkscape.org/namespaces/inkscape"
   xmlns:sodipodi="http://sodipodi.sourceforge.net/DTD/sodipodi-0.dtd"
   xmlns="http://www.w3.org/2000/svg"
   xmlns:svg="http://www.w3.org/2000/svg">
  <defs
     id="defs16" />
  <sodipodi:namedview
     id="namedview14"
     pagecolor="#ffffff"
     bordercolor="#666666"
     borderopacity="1.0"
     inkscape:pageshadow="2"
     inkscape:pageopacity="0.0"
     inkscape:pagecheckerboard="0"
     showgrid="false"
     inkscape:zoom="26"
     inkscape:cx="22.019231"
     inkscape:cy="6.1538461"
     inkscape:window-width="1920"
     inkscape:window-height="1018"
     inkscape:window-x="2552"
     inkscape:window-y="-8"
     inkscape:window-maximized="1"
     inkscape:current-layer="svg12"
     fit-margin-top="0"
     fit-margin-left="0"
     fit-margin-right="0"
     fit-margin-bottom="0" />
  <path
     id="path4"
     style="fill:#000000;stroke:none;stroke-width:0.438776"
     d="M 0 0 L 0 14.917969 L 14.917969 14.917969 L 14.917969 0 L 0 0 z M 0.87695312 0.87695312 L 14.041016 0.87695312 L 14.041016 14.041016 L 0.87695312 14.041016 L 0.87695312 0.87695312 z " />
  <path
     id="path6"
     style="fill:#000000;stroke:none;stroke-width:0.438776"
     d="M 28.082031 0 L 28.082031 2.1757812 L 29 2.1757812 L 29 0.9609375 L 30.40625 0.9609375 L 30.40625 0 L 28.082031 0 z M 31.439453 0 L 31.439453 0.9609375 L 35.191406 0.9609375 L 35.191406 0 L 31.439453 0 z M 36.605469 0 L 36.605469 0.9609375 L 39.216797 0.9609375 L 39.216797 0 L 36.605469 0 z M 40.630859 0 L 40.630859 0.9609375 L 42.154297 0.9609375 L 42.154297 2.1757812 L 43 2.1757812 L 43 0 L 40.630859 0 z M 28.082031 3.2089844 L 28.082031 6.6894531 L 29 6.6894531 L 29 3.2089844 L 28.082031 3.2089844 z M 42.154297 3.3183594 L 42.154297 7.0703125 L 43 7.0703125 L 43 3.3183594 L 42.154297 3.3183594 z M 28.082031 7.5605469 L 28.082031 11.367188 L 29 11.367188 L 29 7.5605469 L 28.082031 7.5605469 z M 42.154297 7.9960938 L 42.154297 11.585938 L 43 11.585938 L 43 7.9960938 L 42.154297 7.9960938 z M 28.082031 12.402344 L 28.082031 14.917969 L 30.839844 14.917969 L 30.839844 14.115234 L 29 14.115234 L 29 12.402344 L 28.082031 12.402344 z M 42.154297 12.509766 L 42.154297 14.115234 L 40.740234 14.115234 L 40.740234 14.917969 L 43 14.917969 L 43 12.509766 L 42.154297 12.509766 z M 31.820312 14.115234 L 31.820312 14.917969 L 35.138672 14.917969 L 35.138672 14.115234 L 31.820312 14.115234 z M 36.443359 14.115234 L 36.443359 14.917969 L 39.162109 14.917969 L 39.162109 14.115234 L 36.443359 14.115234 z " />
  <path
     style="fill:#010101;stroke:none;stroke-width:0.438776"
     d="m 22.816327,4.387755 -0.438776,0.438776 1.755102,2.193877 h -7.020408 v 0.877551 h 7.020408 l -1.755102,2.193878 0.438776,0.438775 2.443104,-3.120922 z"
     id="path10"
     sodipodi:nodetypes="cccccccccc" />
</svg>
